<svg width="44" height="52" viewBox="0 0 44 52" fill="none" xmlns="http://www.w3.org/2000/svg">
<path d="M20.9301 51.6202C20.7001 51.5302 20.46 51.4302 20.22 51.3402C18.33 50.6402 17.39 48.7502 18.33 46.9802C19.27 45.2102 20.5601 43.6302 21.8901 41.7002C23.1601 43.4102 24.32 44.7602 25.23 46.2502C26.67 48.6102 25.87 50.5202 23.23 51.4302C23.13 51.4602 23.06 51.5602 22.97 51.6202C22.29 51.6202 21.6101 51.6202 20.9301 51.6202ZM22 44.3202C21.34 45.1502 20.84 45.7602 20.37 46.3902C20.15 46.6902 19.9501 47.0202 19.8001 47.3602C19.2601 48.5302 19.7 49.6202 20.96 49.8902C21.66 50.0402 22.4701 50.0002 23.1501 49.7802C24.2801 49.4202 24.68 48.3702 24.1 47.3402C23.51 46.3302 22.78 45.4302 22 44.3202Z" fill="white"/>
<path d="M27.0499 0.610098C27.1999 1.4201 27.3899 2.2301 27.4899 3.0401C27.5599 3.5601 27.5799 4.1101 27.4699 4.6001C27.3999 4.8901 27.0599 5.2401 26.7799 5.3101C26.5699 5.3601 26.0399 5.0201 26.0299 4.8401C25.9899 3.4201 25.5099 1.9501 26.3599 0.600098C26.5999 0.610098 26.8199 0.610098 27.0499 0.610098Z" fill="white"/>
<path d="M18.77 12.0601C20.33 9.22012 22.5901 7.49012 25.8101 7.07012C30.4901 6.46012 35.22 10.3101 35.42 15.0201C35.47 16.2101 35.68 17.1201 36.57 18.0001C37.7999 19.2201 38.44 20.8401 38.59 22.5701C38.65 23.3001 38.9 23.6601 39.53 24.0401C42.57 25.8701 43.74 28.6601 43.37 32.1101C43.04 35.1501 40.7 37.7401 37.6 38.5401C36.84 38.7401 36.04 38.8301 35.25 38.8301C26.37 38.8501 17.5 38.8501 8.62 38.8401C5 38.8301 2.10995 36.8801 0.949954 33.7201C-0.210046 30.5601 0.589973 26.8201 3.21997 24.9101C4.63997 23.8701 5.18996 22.8201 5.45996 21.0901C6.44996 14.9301 11.57 11.2401 17.77 11.9201C18.07 11.9601 18.37 12.0101 18.77 12.0601ZM25.01 18.5301C24.85 18.3101 24.72 18.1401 24.6 17.9601C22.09 14.0901 17.65 12.4601 13.38 13.8301C9.19001 15.1801 6.53998 19.2001 6.84998 23.8301C6.88998 24.4901 6.70998 24.7201 6.09998 24.9501C3.14998 26.1001 1.56 29.0301 2.12 32.1401C2.62 34.9501 5.20997 37.2601 8.21997 37.2801C17.36 37.3401 26.5 37.3401 35.63 37.2801C38.69 37.2601 41.28 34.9401 41.77 32.0701C42.3 28.9901 40.77 26.1001 37.87 24.9401C37.16 24.6601 37.12 24.2701 37.1 23.6701C36.96 19.8701 34.5 17.1001 30.76 16.5801C28.57 16.2801 26.71 17.0801 25.01 18.5301ZM33.77 15.8301C34.18 12.8201 31.72 9.57012 28.53 8.80012C25.22 8.00012 21.43 9.71012 20.58 12.2201C22.25 13.5201 23.8699 14.7801 25.5699 16.1001C28.1099 14.7301 30.91 14.5801 33.77 15.8301Z" fill="white"/>
<path d="M11.0401 40.4102C12.1601 42.0402 13.4101 43.5902 14.3701 45.3102C15.3301 47.0402 14.4901 48.8902 12.6601 49.6602C11.4201 50.1802 10.1601 50.1702 8.91011 49.6802C7.05011 48.9402 6.23007 47.0302 7.24007 45.2202C8.18007 43.5302 9.44012 42.0202 10.5501 40.4302C10.7201 40.4102 10.8801 40.4102 11.0401 40.4102ZM10.7901 42.6502C9.96011 43.8302 9.22011 44.7302 8.66011 45.7302C8.02011 46.8602 8.50008 48.0002 9.75008 48.2602C10.5101 48.4202 11.4101 48.3502 12.1401 48.1002C13.1401 47.7602 13.47 46.7002 12.94 45.7802C12.37 44.7802 11.6401 43.8702 10.7901 42.6502Z" fill="white"/>
<path d="M33.08 40.1401C34.38 41.9101 35.57 43.2801 36.48 44.8301C37.83 47.1201 36.7701 49.3001 34.1601 49.8901C31.7801 50.4401 29.5601 49.3501 29.2601 47.3301C29.1401 46.5701 29.2901 45.6201 29.6801 44.9701C30.6301 43.4001 31.78 41.9601 33.08 40.1401ZM33.09 42.6401C32.25 43.8801 31.5001 44.8201 30.9301 45.8601C30.3801 46.8501 30.8101 47.9001 31.8901 48.1901C32.6101 48.3801 33.4601 48.4001 34.1801 48.2101C35.4401 47.8701 35.86 46.7801 35.21 45.6501C34.64 44.6901 33.92 43.8201 33.09 42.6401Z" fill="white"/>
<path d="M37.13 4.72998C37.27 5.19998 37.61 5.78998 37.46 5.96998C36.73 6.85998 35.9 7.67998 35.03 8.44998C34.87 8.58998 34.3 8.46998 34.07 8.28998C33.92 8.16998 33.9001 7.58998 34.0501 7.41998C34.7701 6.60998 35.55 5.84998 36.33 5.09998C36.46 4.96998 36.66 4.92998 37.13 4.72998Z" fill="white"/>
<path d="M39.49 16.5C38.96 16.5 38.42 16.58 37.91 16.47C37.62 16.41 37.2 16.05 37.2 15.83C37.2 15.56 37.56 15.07 37.79 15.05C38.92 14.97 40.0501 14.97 41.1801 15.05C41.4001 15.07 41.76 15.56 41.75 15.82C41.74 16.06 41.3401 16.42 41.0601 16.47C40.5701 16.58 40.02 16.5 39.49 16.5Z" fill="white"/>
<path d="M19.5799 7.81003C19.5799 8.49003 18.8999 8.87003 18.3799 8.43003C17.5299 7.70003 16.7499 6.88003 16.0099 6.04003C15.8599 5.87003 15.9199 5.33003 16.0899 5.14003C16.2599 4.96003 16.8199 4.86003 16.9699 5.00003C17.8599 5.80003 18.6799 6.67003 19.5099 7.53003C19.5799 7.60003 19.5699 7.74003 19.5799 7.81003Z" fill="white"/>
</svg>
