<svg width="55" height="55" viewBox="0 0 55 55" fill="none" xmlns="http://www.w3.org/2000/svg">
<path d="M27.27 0.600098C42.17 0.630098 54.21 12.7201 54.19 27.6701C54.17 42.3201 42.12 54.4701 27.46 54.5001C12.41 54.5301 0.320074 42.5401 0.300074 27.5501C0.280074 12.6901 12.34 0.640098 27.27 0.600098ZM20.23 27.5601C21.25 27.5601 22.22 27.5601 23.26 27.5601C23.26 32.5801 23.26 37.5501 23.26 42.5301C25.29 42.5301 27.2601 42.5301 29.2801 42.5301C29.2801 37.5301 29.2801 32.5601 29.2801 27.5501C30.7801 27.5501 32.23 27.5501 33.7 27.5501C33.89 25.5301 34.07 23.5601 34.25 21.5401C32.65 21.5401 31.1 21.5401 29.51 21.5401C29.51 20.7401 29.5 19.9701 29.51 19.2101C29.53 18.1401 29.9601 17.7201 31.0301 17.7301C32.0601 17.7301 33.1 17.7301 34.14 17.7301C34.16 17.6401 34.19 17.5901 34.19 17.5401C34.2 15.9801 34.2 14.4101 34.2 12.8501C34.2 12.6201 34.11 12.5501 33.89 12.5601C32.17 12.5801 30.45 12.5401 28.73 12.6201C25.88 12.7501 23.86 14.5101 23.39 17.3301C23.19 18.5401 23.26 19.7901 23.21 21.0201C23.2 21.1801 23.21 21.3501 23.21 21.5601C22.17 21.5601 21.2 21.5601 20.23 21.5601C20.23 23.5801 20.23 25.5401 20.23 27.5601Z" fill="white"/>
</svg>
