<svg width="55" height="55" viewBox="0 0 55 55" fill="none" xmlns="http://www.w3.org/2000/svg">
<path d="M54.01 27.3601C54.03 42.5201 41.9699 54.3701 27.3199 54.5001C12.4799 54.6401 0.269965 42.7701 0.129965 27.7701C-3.51816e-05 12.9701 11.8599 0.750099 26.8199 0.620099C41.8899 0.480099 53.88 12.5801 54.01 27.3601ZM27.0999 42.4901C29.1499 42.4901 31.1899 42.4901 33.2399 42.4901C38.0699 42.4801 42.01 38.5101 42.01 33.6801C42.01 29.6201 42.01 25.5501 42.01 21.4901C42.01 21.0201 41.98 20.5501 41.9 20.0901C41.13 15.6501 37.53 12.6201 33.03 12.6201C29.69 12.6201 26.35 12.6101 23.01 12.6201C21.95 12.6201 20.8799 12.6101 19.8199 12.7101C15.7799 13.0901 12.23 16.8601 12.17 20.9101C12.11 25.2601 12.15 29.6101 12.15 33.9601C12.15 34.4001 12.19 34.8401 12.27 35.2701C13.09 39.5301 16.7 42.5001 21.05 42.5001C23.06 42.4901 25.0799 42.4901 27.0999 42.4901Z" fill="white"/>
<path d="M39.5202 27.41C39.5202 29.47 39.6202 31.54 39.5002 33.59C39.3102 36.78 36.3702 39.69 33.1802 40C32.6402 40.05 32.1001 40.08 31.5701 40.08C28.4001 40.09 25.2302 40.09 22.0602 40.08C17.8302 40.08 14.5802 36.85 14.5602 32.61C14.5502 29.18 14.5502 25.76 14.5602 22.33C14.5802 18.59 17.4901 15.42 21.2201 15.09C22.1501 15.01 23.0902 15.03 24.0302 15.03C26.7302 15.02 29.4302 14.99 32.1302 15.04C36.4202 15.11 39.5402 18.26 39.6002 22.56C39.6202 24.18 39.6002 25.8 39.6002 27.42C39.5702 27.41 39.5502 27.41 39.5202 27.41ZM35.5002 27.26C35.3202 22.5 31.2902 18.89 26.6602 19.13C21.9002 19.38 18.3502 23.36 18.6502 28.16C18.9302 32.62 22.7901 36.26 27.5901 35.99C32.1001 35.73 35.7502 31.71 35.5002 27.26ZM32.8802 19.13C32.8802 20.15 33.7001 20.97 34.7201 20.98C35.7201 20.99 36.5602 20.14 36.5602 19.13C36.5602 18.11 35.7401 17.29 34.7101 17.29C33.6901 17.29 32.8802 18.1 32.8802 19.13Z" fill="white"/>
<path d="M27.1302 33.4101C24.1802 33.5801 21.3801 31.0201 21.2101 27.9801C21.0201 24.6501 23.4502 21.8801 26.7402 21.6701C30.0002 21.4701 32.8001 23.9801 32.9401 27.3501C33.0701 30.8001 30.2702 33.4601 27.1302 33.4101Z" fill="white"/>
</svg>
