<svg width="72" height="72" viewBox="0 0 72 72" fill="none" xmlns="http://www.w3.org/2000/svg">
<path d="M35.7198 0.620117C16.1098 0.670117 0.249828 16.5098 0.279828 36.0298C0.309828 55.7398 16.1898 71.5002 35.9698 71.4502C55.2298 71.4102 71.0798 55.4399 71.0998 36.1899C71.1298 16.5499 55.2998 0.660117 35.7198 0.620117ZM26.9598 53.9502C26.8698 54.7902 26.3898 55.3101 25.5498 55.3301C23.7298 55.3701 21.9098 55.3698 20.0898 55.3198C19.1698 55.2998 18.6997 54.7098 18.6997 53.7798C18.6997 49.9798 18.6997 46.1801 18.6997 42.3701C18.6997 38.5801 18.6997 34.79 18.6997 31C18.6997 29.91 19.1898 29.4199 20.2798 29.4199C22.0098 29.4199 23.7298 29.4199 25.4598 29.4199C26.3598 29.4199 26.8598 29.87 26.9598 30.77C26.9798 30.94 26.9798 31.12 26.9798 31.3C26.9798 38.68 26.9798 46.0502 26.9798 53.4302C26.9798 53.6002 26.9798 53.7802 26.9598 53.9502ZM22.8099 27.3601C19.8999 27.3301 17.5098 24.94 17.5098 22.04C17.5098 19.12 19.9198 16.69 22.8298 16.7C25.7498 16.71 28.1598 19.12 28.1498 22.04C28.1498 24.95 25.6899 27.3901 22.8099 27.3601ZM55.1698 55.1602C54.9198 55.2802 54.6298 55.3501 54.3598 55.3501C52.5498 55.3701 50.7497 55.3699 48.9397 55.3599C47.9197 55.3499 47.4397 54.8501 47.4397 53.8301C47.4397 49.8501 47.4497 45.8701 47.4397 41.8901C47.4397 40.8501 47.3098 39.8301 46.9898 38.8301C46.4798 37.2101 45.2599 36.2699 43.5599 36.1899C42.0599 36.1199 40.8197 36.5701 39.9497 37.8301C39.4697 38.5301 39.1598 39.2999 38.9998 40.1299C38.8798 40.7699 38.7698 41.4298 38.7698 42.0898C38.7498 45.9898 38.7598 49.8898 38.7598 53.7798C38.7598 54.8198 38.2498 55.3499 37.2098 55.3599C35.4998 55.3699 33.7797 55.3699 32.0697 55.3599C31.0097 55.3499 30.4698 54.7998 30.4698 53.7598C30.4698 46.1698 30.4698 38.57 30.4598 30.98C30.4598 30.14 30.9998 29.3899 31.9998 29.4199C33.7798 29.4699 35.5598 29.4299 37.3398 29.4399C38.2498 29.4399 38.7498 29.9501 38.7598 30.8701C38.7598 31.3801 38.7598 31.8901 38.7598 32.3701C39.2698 31.8601 39.7398 31.3301 40.2698 30.8701C41.3398 29.9201 42.6498 29.45 44.0298 29.22C45.5398 28.96 47.0597 28.94 48.5697 29.21C50.7997 29.61 52.6298 30.6601 53.8898 32.6101C54.7798 33.9801 55.2998 35.4901 55.4998 37.1001C55.6798 38.5501 55.8098 40.02 55.8298 41.48C55.8898 45.55 55.8698 49.6302 55.8898 53.7002C55.8898 54.3002 55.7798 54.8602 55.1698 55.1602Z" fill="white"/>
</svg>
