<svg width="87" height="78" viewBox="0 0 87 78" fill="none" xmlns="http://www.w3.org/2000/svg">
<path d="M0.439941 27.68C0.229941 31.02 0.669927 34.2899 1.29993 37.5699C1.77993 40.0599 2.43992 42.4799 3.22992 44.8899C4.21992 47.9199 5.60991 50.72 7.15991 53.48C9.45991 57.57 12.3999 61.15 15.6899 64.47C18.6099 67.42 21.76 70.09 25.14 72.49C27.19 73.95 29.25 75.4301 31.46 76.6101C33.46 77.6801 35.4599 77.4899 36.7299 75.3999C37.1499 74.7099 37.57 74.02 37.89 73.29C38.35 72.24 37.61 71.0101 36.4 70.1201C33.58 68.0401 30.79 65.9299 28.08 63.7099C25.54 61.6299 23.43 59.1099 21.59 56.3999C19.87 53.8799 18.4099 51.23 17.4099 48.3C16.5899 45.88 15.8799 43.45 15.6299 40.93C15.4299 38.9 15.5099 36.83 15.5699 34.78C15.5899 34.08 15.8499 33.3599 16.1299 32.6999C16.6099 31.5499 17.8799 31.19 19.1199 31.74C21.4699 32.79 23.82 32.4799 26.21 31.8199C28.06 31.2999 29.66 30.39 31.08 29.15C33.22 27.29 34.92 25.1 35.84 22.39C36.67 19.92 36.7899 17.35 36.5999 14.76C36.2299 9.60999 33.5099 5.92993 29.2999 3.19993C25.7699 0.919931 21.9099 0.500004 17.8499 1.15C13.5799 1.84 10.1799 3.93995 7.23993 7.08995C5.22993 9.23995 3.80993 11.71 2.61993 14.3C1.78993 16.1 1.33995 18.13 1.00995 20.1C0.589949 22.59 0.459951 25.13 0.199951 27.65C0.269951 27.67 0.359941 27.67 0.439941 27.68Z" fill="white"/>
<path d="M48.6199 27.63C48.8599 30.71 48.9799 33.8 49.3799 36.85C49.6499 38.86 50.2099 40.8501 50.8499 42.7801C51.6699 45.2601 52.5399 47.7401 53.6799 50.0801C54.8399 52.4601 56.2999 54.71 57.7399 56.95C59.8899 60.3 62.5299 63.2499 65.4799 65.8999C67.5499 67.7599 69.7199 69.51 71.9199 71.22C73.9099 72.77 75.9599 74.2399 78.0599 75.6499C78.9199 76.2299 79.9199 76.72 80.9199 76.98C83.7099 77.71 84.9199 76.3901 85.8499 74.0401C86.6199 72.1101 86.2199 71.2999 84.4599 70.1599C81.4199 68.1899 78.5799 65.97 75.9599 63.47C73.1799 60.83 70.7398 57.9299 68.7198 54.6599C66.5298 51.1099 65.1599 47.31 64.3099 43.23C63.7099 40.34 63.9199 37.49 63.9499 34.62C63.9599 33.76 64.4599 32.8701 64.8599 32.0601C65.1699 31.4401 66.5199 31.29 67.3999 31.72C69.6899 32.84 72.0199 32.49 74.3299 31.87C77.7499 30.96 80.3099 28.77 82.2799 25.97C83.8099 23.79 84.7899 21.31 84.8899 18.58C84.9299 17.6 84.8799 16.61 84.9099 15.63C85.0299 11.69 83.3499 8.49 80.7499 5.72C77.6699 2.45 73.8299 0.920025 69.3299 0.870025C66.2499 0.840025 63.3299 1.48005 60.6699 2.90005C58.1499 4.24005 56.0699 6.21 54.2899 8.47C52.7799 10.37 51.6899 12.5 50.7699 14.73C49.4599 17.93 48.7499 21.26 48.7899 24.73C48.7999 25.68 48.7899 26.64 48.7899 27.59C48.7399 27.62 48.6799 27.62 48.6199 27.63Z" fill="white"/>
</svg>
