<svg width="42" height="31" viewBox="0 0 42 31" fill="none" xmlns="http://www.w3.org/2000/svg">
<path d="M2.72999 17.3703C9.54999 17.3503 16.38 17.3603 23.2 17.3603C23.41 17.3603 23.61 17.3603 23.96 17.3603C23.71 17.6303 23.55 17.8203 23.38 17.9903C22.75 18.6303 22.09 19.2503 21.49 19.9203C20.93 20.5403 20.8901 21.3803 21.3001 22.0703C21.7001 22.7503 22.5 23.1503 23.28 22.9403C23.66 22.8403 24.06 22.6103 24.35 22.3303C26.2 20.5203 28.03 18.6803 29.85 16.8403C30.68 16.0103 30.68 14.9303 29.85 14.0903C28.02 12.2403 26.18 10.3903 24.32 8.56033C23.48 7.73033 22.3301 7.74033 21.5601 8.52033C20.8401 9.25033 20.87 10.3903 21.64 11.2103C22.2 11.8103 22.79 12.3803 23.38 12.9503C23.55 13.1103 23.77 13.2303 23.97 13.3603C23.93 13.4303 23.88 13.5103 23.84 13.5803C23.66 13.5803 23.4801 13.5803 23.3001 13.5803C16.3601 13.5803 9.43 13.5903 2.49 13.5703C1.81 13.5703 1.15999 13.7803 0.72999 14.3303C0.25999 14.9303 0.200014 15.8403 0.630014 16.4803C1.10001 17.1703 1.94999 17.3703 2.72999 17.3703Z" fill="#70A01D"/>
<path d="M33.6097 1.91024C30.8197 0.400235 27.8098 -0.199765 24.6598 0.170235C20.0098 0.720235 16.3297 2.95023 13.6297 6.78023C12.9797 7.71023 13.1497 8.83023 13.9897 9.44023C14.8697 10.0802 15.9798 9.92024 16.6598 8.97024C17.9898 7.13024 19.6097 5.65024 21.7297 4.79024C25.8397 3.12024 29.7697 3.54024 33.3197 6.20024C39.1797 10.5902 39.5497 19.0502 34.1497 24.0302C29.1097 28.6902 20.9997 27.8902 16.9597 22.3302C16.8297 22.1502 16.6898 21.9702 16.5498 21.8002C15.9698 21.1002 14.9997 20.9402 14.1897 21.3902C13.3997 21.8302 13.0197 22.7902 13.3697 23.6302C13.5697 24.0902 13.8697 24.5302 14.1897 24.9202C17.7197 29.2302 22.2697 31.2602 27.8197 30.7602C32.2697 30.3602 35.8797 28.2702 38.5997 24.7202C40.9197 21.6902 42.0098 17.8002 41.6598 14.0102C41.4798 12.1302 40.9297 10.2702 40.0797 8.58024C38.6297 5.68024 36.4597 3.45024 33.6097 1.91024Z" fill="#70A01D"/>
</svg>
