<svg width="55" height="55" viewBox="0 0 55 55" fill="none" xmlns="http://www.w3.org/2000/svg">
<path d="M25.9701 14.3301C16.2901 15.5101 11.3202 26.3901 16.8002 34.4201C16.9602 34.6501 16.9802 34.8501 16.8902 35.1101C16.5102 36.1901 16.1502 37.2801 15.7802 38.3601C15.6602 38.7201 15.5402 39.0801 15.4002 39.5201C15.6402 39.4501 15.8101 39.4001 15.9801 39.3501C17.3501 38.9201 18.7101 38.4701 20.0901 38.0601C20.2601 38.0101 20.5002 38.0401 20.6502 38.1301C23.6402 39.9301 26.8402 40.4801 30.2502 39.8101C37.2802 38.4301 41.9102 31.2201 40.2402 24.2501C38.6802 17.7801 32.5701 13.5301 25.9701 14.3301ZM32.7201 34.2401C31.8801 34.5001 31.0702 34.3401 30.2402 34.1201C26.6102 33.1601 23.8602 31.0101 21.7502 27.9501C21.0402 26.9201 20.3501 25.8901 20.1001 24.6401C20.0401 24.3601 20.0201 24.0701 19.9801 23.7801C19.9801 22.5501 20.4202 21.5101 21.3002 20.6601C21.8502 20.1301 22.5702 20.0701 23.2802 20.1301C23.4702 20.1501 23.7002 20.4101 23.7902 20.6101C24.2602 21.6401 24.6902 22.6901 25.1102 23.7401C25.1802 23.9101 25.1402 24.1701 25.0502 24.3301C24.7802 24.7601 24.4702 25.1701 24.1402 25.5501C23.9002 25.8301 23.8402 26.0801 24.0402 26.4001C25.2802 28.4801 27.0202 29.9601 29.2702 30.8501C29.5702 30.9701 29.8102 30.9201 30.0102 30.6701C30.4002 30.2001 30.8002 29.7401 31.1602 29.2601C31.3802 28.9701 31.6301 28.8701 31.9501 29.0201C33.0101 29.5101 34.0802 30.0001 35.1202 30.5401C35.2802 30.6201 35.3902 30.9501 35.3902 31.1601C35.3502 32.8001 34.5201 33.7001 32.7201 34.2401Z" fill="white"/>
<path d="M27.3002 0.600098C12.3802 0.640098 0.310103 12.6901 0.330103 27.5401C0.350103 42.5401 12.4301 54.5301 27.4901 54.4901C42.1501 54.4601 54.2001 42.3101 54.2201 27.6601C54.2401 12.7301 42.1902 0.630098 27.3002 0.600098ZM30.7802 42.1701C27.1502 42.9201 23.6902 42.4401 20.3902 40.7801C20.2002 40.6801 19.9101 40.6601 19.7001 40.7201C17.1201 41.5201 14.5401 42.3501 11.9601 43.1701C11.8401 43.2101 11.7202 43.2401 11.5202 43.3001C11.9902 41.9001 12.4402 40.5701 12.9002 39.2401C13.3302 37.9701 13.7702 36.7101 14.1802 35.4301C14.2402 35.2401 14.2101 34.9601 14.1101 34.7901C8.86013 25.4601 14.2901 13.9701 24.8501 12.0501C33.2601 10.5201 41.3601 16.1901 42.8201 24.6201C44.2001 32.6701 38.8402 40.5001 30.7802 42.1701Z" fill="white"/>
</svg>
