<svg width="72" height="72" viewBox="0 0 72 72" fill="none" xmlns="http://www.w3.org/2000/svg">
<path d="M35.7198 0.620117C16.1098 0.670117 0.249828 16.5098 0.279828 36.0298C0.309828 55.7398 16.1898 71.5002 35.9698 71.4502C55.2298 71.4102 71.0798 55.4399 71.0998 36.1899C71.1198 16.5499 55.2998 0.660117 35.7198 0.620117ZM60.4698 37.9502C60.3998 40.7602 60.2598 43.5701 59.7998 46.3501C59.5998 47.5801 59.3398 48.7999 58.5998 49.8599C57.4798 51.4599 55.9298 52.2998 54.0198 52.5698C51.6298 52.8998 49.2199 53.0499 46.8099 53.1299C43.1199 53.2399 39.4298 53.3302 35.6698 53.4302C31.8198 53.3302 27.8998 53.2601 23.9898 53.1001C21.8198 53.0101 19.6498 52.7901 17.4798 52.5601C15.1898 52.3201 13.4498 51.2001 12.3398 49.1401C11.8298 48.2001 11.6498 47.1499 11.5098 46.1099C10.9098 41.9099 10.7998 37.6799 10.9098 33.4399C10.9798 30.8999 11.1298 28.3701 11.5098 25.8601C11.7098 24.5601 11.9598 23.2799 12.7498 22.1799C13.8798 20.5899 15.4098 19.6899 17.3398 19.4299C19.7498 19.0999 22.1798 18.9299 24.6198 18.8799C29.2598 18.7799 33.9098 18.6799 38.5498 18.6699C41.4298 18.6599 44.3197 18.7799 47.1997 18.8999C49.5197 18.9899 51.8398 19.13 54.1298 19.5C56.6498 19.9 58.4797 21.1999 59.3197 23.6499C59.6697 24.6599 59.8398 25.7501 59.9798 26.8201C60.4598 30.5001 60.5598 34.2202 60.4698 37.9502Z" fill="white"/>
<path d="M30.7297 43.4399C35.0497 40.9499 39.3298 38.49 43.6698 36C39.3298 33.5 35.0497 31.03 30.7297 28.53C30.7297 33.52 30.7297 38.4499 30.7297 43.4399Z" fill="white"/>
</svg>
